# Blender v2.76 (sub 0) OBJ File: 'fancy_diamondblock.blend'
# www.blender.org
mtllib fancy_diamondblock.mtl
o Cube
v 0.500000 -0.500000 -0.500000
v 0.000000 0.000000 0.500000
v 0.312500 0.312500 0.437500
v -0.500000 -0.500000 -0.500000
v 0.500000 0.500000 -0.500000
v -0.312500 0.312500 0.437500
v 0.312500 -0.312500 0.437500
v -0.500000 0.500000 -0.500000
v 0.312500 -0.312500 -0.500000
v -0.312500 -0.312500 -0.500000
v 0.312500 0.312500 -0.500000
v -0.312500 0.312500 -0.500000
v 0.312500 -0.312500 -0.437500
v -0.312500 -0.312500 -0.437500
v 0.312500 0.312500 -0.437500
v -0.312500 0.312500 -0.437500
v 0.000000 0.000000 -0.500000
v -0.312500 -0.312500 0.437500
v 0.312500 0.312500 0.500000
v -0.312500 0.312500 0.500000
v 0.312500 -0.312500 0.500000
v -0.312500 -0.312500 0.500000
v 0.500000 0.500000 0.500000
v -0.500000 0.500000 0.500000
v 0.500000 -0.500000 0.500000
v -0.500000 -0.500000 0.500000
v 0.000000 0.500000 0.000000
v -0.312500 0.437500 0.312500
v 0.312500 0.437500 0.312500
v -0.312500 0.437500 -0.312500
v 0.312500 -0.437500 0.312500
v -0.312500 -0.437500 0.312500
v 0.312500 -0.437500 -0.312500
v -0.312500 -0.437500 -0.312500
v 0.000000 -0.500000 0.000000
v 0.312500 0.437500 -0.312500
v -0.312500 0.500000 0.312500
v 0.312500 0.500000 0.312500
v -0.312500 0.500000 -0.312500
v 0.312500 0.500000 -0.312500
v -0.500000 -0.312500 -0.312500
v -0.500000 -0.312500 0.312500
v -0.500000 0.312500 -0.312500
v -0.500000 0.312500 0.312500
v -0.437500 -0.312500 -0.312500
v -0.437500 -0.312500 0.312500
v -0.437500 0.312500 -0.312500
v -0.437500 0.312500 0.312500
v -0.500000 0.000000 0.000000
v 0.500000 -0.312500 0.312500
v 0.500000 -0.312500 -0.312500
v 0.500000 0.312500 0.312500
v 0.500000 0.312500 -0.312500
v 0.437500 -0.312500 0.312500
v 0.437500 -0.312500 -0.312500
v 0.437500 0.312500 0.312500
v 0.437500 0.312500 -0.312500
v 0.500000 0.000000 0.000000
v -0.312500 -0.500000 -0.312500
v 0.312500 -0.500000 -0.312500
v -0.312500 -0.500000 0.312500
v 0.312500 -0.500000 0.312500
vt 0.812500 0.187500
vt 0.187500 0.187500
vt 0.187500 0.125000
vt 0.812500 0.125000
vt 0.812500 0.875000
vt 0.187500 0.875000
vt 0.187500 0.812500
vt 0.812500 0.812500
vt 0.875000 0.187500
vt 0.875000 0.812500
vt 0.812400 0.812400
vt 0.187600 0.812400
vt 0.500000 0.500000
vt 0.125000 0.812500
vt 0.125000 0.187500
vt 0.000100 0.000100
vt 0.999900 0.000100
vt 0.812437 0.187563
vt 0.187562 0.187562
vt 0.999900 0.999900
vt 0.000100 0.999900
vn 0.000000 1.000000 0.000000
vn 0.000000 -1.000000 -0.000000
vn -1.000000 0.000000 0.000000
vn -0.000000 0.196100 0.980600
vn 1.000000 0.000000 0.000000
vn 0.000000 -0.000000 -1.000000
vn -0.196100 0.000000 -0.980600
vn 0.000000 0.196100 -0.980600
vn 0.196100 0.000000 -0.980600
vn 0.000000 -0.196100 -0.980600
vn 0.196100 0.000000 0.980600
vn -0.000000 0.000000 1.000000
vn -0.000000 -0.196100 0.980600
vn -0.196100 0.980600 0.000000
vn 0.000000 -0.980600 0.196100
vn 0.196100 -0.980600 -0.000000
vn 0.000000 -0.980600 -0.196100
vn -0.196100 0.000000 0.980600
vn -0.980600 0.000000 0.196100
vn -0.980600 0.196100 -0.000000
vn -0.980600 0.000000 -0.196100
vn -0.980600 -0.196100 -0.000000
vn 0.980600 0.000000 -0.196100
vn 0.980600 0.196100 0.000000
vn 0.980600 0.000000 0.196100
vn 0.980600 -0.196100 0.000000
vn 0.000000 0.980600 0.196100
vn 0.196100 0.980600 0.000000
vn 0.000000 0.980600 -0.196100
vn -0.196100 -0.980600 -0.000000
usemtl Material
s off
f 22/1/1 21/2/1 7/3/1 18/4/1
f 19/5/2 20/6/2 6/7/2 3/8/2
f 21/8/3 19/1/3 3/9/3 7/10/3
f 3/11/4 6/12/4 2/13/4
f 20/14/5 22/15/5 18/2/5 6/7/5
f 1/16/6 4/17/6 10/18/6 9/19/6
f 9/1/1 10/2/1 14/3/1 13/4/1
f 8/20/6 5/21/6 11/12/6 12/11/6
f 5/21/6 1/16/6 9/19/6 11/12/6
f 4/17/6 8/20/6 12/11/6 10/18/6
f 16/11/7 17/13/7 14/18/7
f 11/14/3 9/15/3 13/2/3 15/7/3
f 10/8/5 12/1/5 16/9/5 14/10/5
f 12/5/2 11/6/2 15/7/2 16/8/2
f 16/11/8 15/12/8 17/13/8
f 15/12/9 13/19/9 17/13/9
f 14/18/10 17/13/10 13/19/10
f 3/11/11 2/13/11 7/18/11
f 25/17/12 23/20/12 19/11/12 21/18/12
f 26/16/12 25/17/12 21/18/12 22/19/12
f 23/20/12 24/21/12 20/12/12 19/11/12
f 24/21/12 26/16/12 22/19/12 20/12/12
f 7/18/13 2/13/13 18/19/13
f 38/14/3 40/15/3 36/2/3 29/7/3
f 28/11/14 27/13/14 30/18/14
f 39/8/5 37/1/5 28/9/5 30/10/5
f 8/17/1 24/20/1 37/11/1 39/18/1
f 8/21/3 4/16/3 41/19/3 43/12/3
f 32/18/15 35/13/15 31/19/15
f 5/20/5 23/21/5 52/12/5 53/11/5
f 23/21/1 5/16/1 40/19/1 38/12/1
f 4/16/3 26/17/3 42/18/3 41/19/3
f 33/12/16 31/19/16 35/13/16
f 34/11/17 33/12/17 35/13/17
f 59/5/12 60/6/12 33/7/12 34/8/12
f 4/20/2 1/21/2 60/12/2 59/11/2
f 26/17/2 4/20/2 59/11/2 61/18/2
f 62/1/6 61/2/6 32/3/6 31/4/6
f 1/21/2 25/16/2 62/19/2 60/12/2
f 26/17/3 24/20/3 44/11/3 42/18/3
f 6/12/18 18/19/18 2/13/18
f 40/1/12 39/2/12 30/3/12 36/4/12
f 41/1/1 42/2/1 46/3/1 45/4/1
f 24/20/3 8/21/3 43/12/3 44/11/3
f 1/17/5 5/20/5 53/11/5 51/18/5
f 5/16/1 8/17/1 39/18/1 40/19/1
f 48/11/19 49/13/19 46/18/19
f 43/14/12 41/15/12 45/2/12 47/7/12
f 42/8/6 44/1/6 48/9/6 46/10/6
f 44/5/2 43/6/2 47/7/2 48/8/2
f 48/11/20 47/12/20 49/13/20
f 47/12/21 45/19/21 49/13/21
f 46/18/22 49/13/22 45/19/22
f 25/16/2 26/17/2 61/18/2 62/19/2
f 50/1/1 51/2/1 55/3/1 54/4/1
f 24/20/1 23/21/1 38/12/1 37/11/1
f 57/11/23 58/13/23 55/18/23
f 52/14/6 50/15/6 54/2/6 56/7/6
f 51/8/12 53/1/12 57/9/12 55/10/12
f 53/5/2 52/6/2 56/7/2 57/8/2
f 57/11/24 56/12/24 58/13/24
f 56/12/25 54/19/25 58/13/25
f 55/18/26 58/13/26 54/19/26
f 61/8/5 59/1/5 34/9/5 32/10/5
f 37/5/6 38/6/6 29/7/6 28/8/6
f 28/11/27 29/12/27 27/13/27
f 29/12/28 36/19/28 27/13/28
f 30/18/29 27/13/29 36/19/29
f 23/21/5 25/16/5 50/19/5 52/12/5
f 25/16/5 1/17/5 51/18/5 50/19/5
f 34/11/30 35/13/30 32/18/30
f 60/14/3 62/15/3 31/2/3 33/7/3
